<svg width="16" height="16" viewBox="0 0 16 16" fill="none" xmlns="http://www.w3.org/2000/svg">
<path opacity="0.5" d="M12.0002 5.33314C12.3538 5.33314 12.6929 5.19267 12.9429 4.94263C13.193 4.6926 13.3334 4.35347 13.3334 3.99987C13.3334 3.64626 13.193 3.30714 12.9429 3.05711C12.6929 2.80707 12.3538 2.6666 12.0002 2.6666C11.6466 2.6666 11.3074 2.80707 11.0574 3.05711C10.8074 3.30714 10.6669 3.64626 10.6669 3.99987C10.6669 4.35347 10.8074 4.6926 11.0574 4.94263C11.3074 5.19267 11.6466 5.33314 12.0002 5.33314V5.33314ZM0.783379 10.8475C0.535141 10.6012 0.33812 10.3081 0.20367 9.98521C0.0692198 9.66233 0 9.31604 0 8.96629C0 8.61654 0.0692198 8.27025 0.20367 7.94738C0.33812 7.6245 0.535141 7.33143 0.783379 7.08505L7.10307 0.79736C7.60297 0.300762 8.27835 0.0210325 8.98298 0.0187312L13.3148 6.55724e-05C13.6676 -0.00240901 14.0175 0.0651791 14.344 0.198912C14.6706 0.332646 14.9673 0.529865 15.2171 0.779137C15.4669 1.02841 15.6647 1.32478 15.7991 1.65106C15.9335 1.97735 16.0017 2.32706 16 2.67993L15.968 7.16238C15.9626 7.86235 15.6808 8.53182 15.184 9.02496L8.95765 15.2207C8.45515 15.7195 7.7758 15.9994 7.06774 15.9994C6.35967 15.9994 5.68033 15.7195 5.17783 15.2207L0.783379 10.8475V10.8475ZM1.72867 8.02634C1.60475 8.1495 1.50641 8.29596 1.4393 8.45727C1.37219 8.61859 1.33765 8.79158 1.33765 8.96629C1.33765 9.14101 1.37219 9.314 1.4393 9.47531C1.50641 9.63663 1.60475 9.78308 1.72867 9.90625L6.12312 14.2794C6.64576 14.7993 7.49105 14.7993 8.01369 14.2794L14.2401 8.08367C14.4878 7.83705 14.6282 7.50261 14.6307 7.15305L14.6627 2.66927C14.6634 2.49306 14.6292 2.31845 14.562 2.15555C14.4948 1.99265 14.396 1.84469 14.2713 1.72021C14.1465 1.59573 13.9984 1.49722 13.8353 1.43035C13.6723 1.36349 13.4976 1.32961 13.3214 1.33067L8.98831 1.348C8.63599 1.34915 8.29831 1.48901 8.04836 1.73731L1.72867 8.02634Z" fill="#585858"/>
</svg>
