<svg width="44" height="44" viewBox="0 0 44 44" fill="none" xmlns="http://www.w3.org/2000/svg">
<g filter="url(#filter0_d_112_322)">
<rect x="10" y="10" width="24" height="24" rx="2" fill="white"/>
</g>
<path d="M29.917 15.3335H28.1115V16.4446H29.7781V28.6668H14.2226V16.4446H15.8892V15.3335H14.0837C13.9538 15.3357 13.8257 15.3634 13.7065 15.4151C13.5874 15.4668 13.4796 15.5415 13.3893 15.6349C13.299 15.7283 13.228 15.8385 13.1803 15.9593C13.1327 16.0802 13.1093 16.2092 13.1115 16.3391V28.7724C13.1093 28.9023 13.1327 29.0313 13.1803 29.1521C13.228 29.2729 13.299 29.3832 13.3893 29.4766C13.4796 29.5699 13.5874 29.6446 13.7065 29.6963C13.8257 29.748 13.9538 29.7758 14.0837 29.7779H29.917C30.0469 29.7758 30.1751 29.748 30.2942 29.6963C30.4134 29.6446 30.5212 29.5699 30.6114 29.4766C30.7017 29.3832 30.7727 29.2729 30.8204 29.1521C30.8681 29.0313 30.8915 28.9023 30.8892 28.7724V16.3391C30.8915 16.2092 30.8681 16.0802 30.8204 15.9593C30.7727 15.8385 30.7017 15.7283 30.6114 15.6349C30.5212 15.5415 30.4134 15.4668 30.2942 15.4151C30.1751 15.3634 30.0469 15.3357 29.917 15.3335V15.3335Z" fill="#585858"/>
<path d="M16.4443 19.7778H17.5554V20.8889H16.4443V19.7778Z" fill="#585858"/>
<path d="M19.7773 19.7778H20.8885V20.8889H19.7773V19.7778Z" fill="#585858"/>
<path d="M23.1113 19.7778H24.2224V20.8889H23.1113V19.7778Z" fill="#585858"/>
<path d="M26.4443 19.7778H27.5554V20.8889H26.4443V19.7778Z" fill="#585858"/>
<path d="M16.4443 22.5557H17.5554V23.6668H16.4443V22.5557Z" fill="#585858"/>
<path d="M19.7773 22.5557H20.8885V23.6668H19.7773V22.5557Z" fill="#585858"/>
<path d="M23.1113 22.5557H24.2224V23.6668H23.1113V22.5557Z" fill="#585858"/>
<path d="M26.4443 22.5557H27.5554V23.6668H26.4443V22.5557Z" fill="#585858"/>
<path d="M16.4443 25.3335H17.5554V26.4446H16.4443V25.3335Z" fill="#585858"/>
<path d="M19.7773 25.3335H20.8885V26.4446H19.7773V25.3335Z" fill="#585858"/>
<path d="M23.1113 25.3335H24.2224V26.4446H23.1113V25.3335Z" fill="#585858"/>
<path d="M26.4443 25.3335H27.5554V26.4446H26.4443V25.3335Z" fill="#585858"/>
<path d="M17.5556 17.5558C17.7029 17.5558 17.8442 17.4972 17.9484 17.3931C18.0526 17.2889 18.1111 17.1476 18.1111 17.0002V13.6669C18.1111 13.5195 18.0526 13.3782 17.9484 13.274C17.8442 13.1699 17.7029 13.1113 17.5556 13.1113C17.4082 13.1113 17.2669 13.1699 17.1627 13.274C17.0585 13.3782 17 13.5195 17 13.6669V17.0002C17 17.1476 17.0585 17.2889 17.1627 17.3931C17.2669 17.4972 17.4082 17.5558 17.5556 17.5558Z" fill="#585858"/>
<path d="M26.4442 17.5558C26.5916 17.5558 26.7329 17.4972 26.8371 17.3931C26.9413 17.2889 26.9998 17.1476 26.9998 17.0002V13.6669C26.9998 13.5195 26.9413 13.3782 26.8371 13.274C26.7329 13.1699 26.5916 13.1113 26.4442 13.1113C26.2969 13.1113 26.1556 13.1699 26.0514 13.274C25.9472 13.3782 25.8887 13.5195 25.8887 13.6669V17.0002C25.8887 17.1476 25.9472 17.2889 26.0514 17.3931C26.1556 17.4972 26.2969 17.5558 26.4442 17.5558Z" fill="#585858"/>
<path d="M19.2227 15.3335H24.7782V16.4446H19.2227V15.3335Z" fill="#585858"/>
<defs>
<filter id="filter0_d_112_322" x="0" y="0" width="44" height="44" filterUnits="userSpaceOnUse" color-interpolation-filters="sRGB">
<feFlood flood-opacity="0" result="BackgroundImageFix"/>
<feColorMatrix in="SourceAlpha" type="matrix" values="0 0 0 0 0 0 0 0 0 0 0 0 0 0 0 0 0 0 127 0" result="hardAlpha"/>
<feOffset/>
<feGaussianBlur stdDeviation="5"/>
<feComposite in2="hardAlpha" operator="out"/>
<feColorMatrix type="matrix" values="0 0 0 0 0 0 0 0 0 0 0 0 0 0 0 0 0 0 0.1 0"/>
<feBlend mode="normal" in2="BackgroundImageFix" result="effect1_dropShadow_112_322"/>
<feBlend mode="normal" in="SourceGraphic" in2="effect1_dropShadow_112_322" result="shape"/>
</filter>
</defs>
</svg>
