<svg width="17" height="21" viewBox="0 0 17 21" fill="none" xmlns="http://www.w3.org/2000/svg">
<path d="M8.50038 0C6.39046 0 4.65858 1.82054 4.65858 4.03846V4.84615H0.864407L0.816769 5.60377L0.0484069 20.1422L0 21H17L16.9524 20.1414L16.184 5.60296L16.1356 4.84615H12.3422V4.03846C12.3422 1.82054 10.6103 0 8.50038 0ZM8.50038 1.61538C9.11173 1.61538 9.69804 1.87067 10.1303 2.32509C10.5626 2.7795 10.8055 3.39582 10.8055 4.03846V4.84615H6.1953V4.03846C6.1953 3.39582 6.43816 2.7795 6.87044 2.32509C7.30273 1.87067 7.88904 1.61538 8.50038 1.61538ZM2.30508 6.46154H4.65858V8.88461H6.1953V6.46154H10.8055V8.88461H12.3422V6.46154H14.6957L15.368 19.3846H1.63354L2.30508 6.46154Z" fill="#574244"/>
</svg>
