<svg width="40" height="40" viewBox="0 0 40 40" fill="none" xmlns="http://www.w3.org/2000/svg">
<rect width="40" height="40" rx="6" fill="white"/>
<path d="M12.5537 16.2582C13.247 14.8775 14.3106 13.7169 15.6257 12.9061C16.9407 12.0952 18.4554 11.666 20.0003 11.6665C22.2462 11.6665 24.1328 12.4915 25.5753 13.8373L23.1862 16.2273C22.322 15.4015 21.2237 14.9807 20.0003 14.9807C17.8295 14.9807 15.992 16.4473 15.3378 18.4165C15.1712 18.9165 15.0762 19.4498 15.0762 19.9998C15.0762 20.5498 15.1712 21.0832 15.3378 21.5832C15.9928 23.5532 17.8295 25.019 20.0003 25.019C21.1212 25.019 22.0753 24.7232 22.822 24.2232C23.2549 23.9382 23.6254 23.5684 23.9113 23.1361C24.1972 22.7038 24.3925 22.2181 24.4853 21.7082H20.0003V18.4848H27.8487C27.947 19.0298 28.0003 19.5982 28.0003 20.189C28.0003 22.7273 27.092 24.864 25.5153 26.314C24.137 27.5873 22.2503 28.3332 20.0003 28.3332C18.9059 28.3336 17.822 28.1184 16.8108 27.6997C15.7995 27.2811 14.8807 26.6673 14.1068 25.8934C13.3329 25.1195 12.7191 24.2006 12.3004 23.1894C11.8818 22.1781 11.6666 21.0943 11.667 19.9998C11.667 18.6548 11.9887 17.3832 12.5537 16.2582Z" fill="#564344"/>
</svg>
