<svg width="40" height="40" viewBox="0 0 40 40" fill="none" xmlns="http://www.w3.org/2000/svg">
<rect width="40" height="40" rx="6" fill="white"/>
<path d="M16.1337 27H13.2313V17.6529H16.1337V27ZM14.6809 16.3779C13.7528 16.3779 13 15.6091 13 14.681C13 14.2352 13.1771 13.8076 13.4923 13.4923C13.8076 13.1771 14.2351 13 14.6809 13C15.1267 13 15.5543 13.1771 15.8695 13.4923C16.1848 13.8076 16.3619 14.2352 16.3619 14.681C16.3619 15.6091 15.6088 16.3779 14.6809 16.3779ZM26.9969 27H24.1006V22.4499C24.1006 21.3655 24.0787 19.9748 22.5916 19.9748C21.0825 19.9748 20.8513 21.153 20.8513 22.3718V27H17.9519V17.6529H20.7356V18.9279H20.7762C21.1637 18.1936 22.1103 17.4185 23.5225 17.4185C26.46 17.4185 27 19.353 27 21.8655V27H26.9969Z" fill="#564344"/>
</svg>
