<svg width="14" height="20" viewBox="0 0 14 20" fill="none" xmlns="http://www.w3.org/2000/svg">
<path d="M6.99723 2.89844C6.32409 2.89844 5.66606 3.1048 5.10636 3.49142C4.54666 3.87805 4.11043 4.42758 3.85283 5.07051C3.59522 5.71345 3.52782 6.42092 3.65915 7.10345C3.79047 7.78599 4.11462 8.41294 4.59061 8.90502C5.06659 9.3971 5.67303 9.73222 6.33324 9.86798C6.99345 10.0037 7.67778 9.93407 8.29969 9.66775C8.92159 9.40144 9.45314 8.95046 9.82712 8.37183C10.2011 7.7932 10.4007 7.11292 10.4007 6.41701C10.4007 5.48383 10.0421 4.58887 9.40385 3.929C8.76558 3.26914 7.89989 2.89844 6.99723 2.89844ZM6.99723 8.70746C6.55904 8.70746 6.13069 8.57313 5.76635 8.32145C5.40201 8.06978 5.11804 7.71206 4.95035 7.29353C4.78266 6.87501 4.73879 6.41447 4.82427 5.97017C4.90976 5.52586 5.12077 5.11774 5.43062 4.79742C5.74046 4.47709 6.13523 4.25895 6.565 4.17057C6.99477 4.08219 7.44024 4.12755 7.84508 4.30091C8.24991 4.47427 8.59593 4.76784 8.83937 5.14451C9.08282 5.52117 9.21276 5.964 9.21276 6.41701C9.21119 7.02341 8.97707 7.60442 8.56175 8.03264C8.14643 8.46085 7.5838 8.70133 6.99723 8.70132V8.70746Z" fill="#FBC11E"/>
<path d="M6.99703 6.07873e-10C5.14691 0.00159753 3.37258 0.760016 2.06157 2.10961C0.750565 3.4592 0.0094147 5.29029 0 7.20295C0 10.0706 1.55622 12.4716 2.69665 14.2217L2.90454 14.541C4.0392 16.2411 5.25643 17.8807 6.55155 19.4535L7.00297 20L7.45439 19.4535C8.74935 17.8806 9.96657 16.241 11.1014 14.541L11.3093 14.2155C12.4438 12.4655 14 10.0706 14 7.20295C13.9906 5.28923 13.2486 3.45721 11.9363 2.10744C10.624 0.757677 8.84817 -2.47811e-05 6.99703 6.07873e-10ZM10.3174 13.5094L10.1035 13.8348C9.08188 15.4191 7.72762 17.1937 6.99703 18.0718C6.29614 17.1937 4.91218 15.4191 3.89054 13.8348L3.68265 13.5094C2.63131 11.8882 1.18795 9.67148 1.18795 7.17838C1.18795 6.38973 1.33821 5.60879 1.63014 4.88017C1.92207 4.15155 2.34997 3.4895 2.88939 2.93184C3.42881 2.37417 4.0692 1.93181 4.77399 1.63C5.47878 1.3282 6.23417 1.17286 6.99703 1.17286C7.75989 1.17286 8.51528 1.3282 9.22007 1.63C9.92486 1.93181 10.5652 2.37417 11.1047 2.93184C11.6441 3.4895 12.072 4.15155 12.3639 4.88017C12.6559 5.60879 12.8061 6.38973 12.8061 7.17838C12.8061 9.69604 11.3687 11.9128 10.3174 13.5094Z" fill="#FBC11E"/>
</svg>
