<svg width="45" height="45" viewBox="0 0 45 45" fill="none" xmlns="http://www.w3.org/2000/svg">
<path d="M22.5 45C10.0748 45 0 34.9252 0 22.5C0 10.0748 10.0748 0 22.5 0C34.9252 0 45 10.0748 45 22.5C45 34.9252 34.9252 45 22.5 45ZM22.5 3.81697C12.1842 3.81697 3.81696 12.1842 3.81696 22.5C3.81696 32.8158 12.1842 41.183 22.5 41.183C32.8158 41.183 41.183 32.8158 41.183 22.5C41.183 12.1842 32.8158 3.81697 22.5 3.81697Z" fill="white"/>
<path d="M22.4998 42.8143C11.2833 42.8143 2.18555 33.7165 2.18555 22.5C2.18555 11.2834 11.2833 2.1857 22.4998 2.1857C33.7164 2.1857 42.8141 11.2834 42.8141 22.5C42.8141 33.7165 33.7164 42.8143 22.4998 42.8143ZM31.8815 14.0302C31.9471 13.9483 31.9853 13.85 31.9853 13.7463C31.9853 13.5005 31.7887 13.3094 31.5484 13.3094L27.9443 13.3258L22.5217 19.7914L17.0991 13.3203L13.4895 13.3039C13.2492 13.3039 13.0526 13.5005 13.0526 13.7408C13.0526 13.8446 13.0908 13.9429 13.1564 14.0248L20.2609 22.4836L13.1564 30.9479C13.0904 31.0279 13.0538 31.1281 13.0526 31.2318C13.0526 31.4776 13.2492 31.6687 13.4895 31.6687L17.0991 31.6523L22.5217 25.1867L27.9497 31.6578L31.5539 31.6742C31.7942 31.6742 31.9908 31.4776 31.9908 31.2373C31.9908 31.1336 31.958 31.0298 31.8925 30.9533L24.7879 22.4891L31.8815 14.0302Z" fill="#F2B950"/>
<path d="M32.0139 31.3168C32.0139 31.559 31.8164 31.7571 31.575 31.7571L27.9536 31.7406L22.4996 25.2188L17.0511 31.7351L13.4243 31.7516C13.1829 31.7516 12.9854 31.559 12.9854 31.3113C12.9854 31.2068 13.0238 31.1077 13.0896 31.0252L20.2281 22.4945L13.0896 13.9693C13.0233 13.8887 12.9865 13.7877 12.9854 13.6831C12.9854 13.441 13.1829 13.2429 13.4243 13.2429L17.0511 13.2594L22.4996 19.7812L27.9481 13.2649L31.5695 13.2484C31.8109 13.2484 32.0084 13.441 32.0084 13.6887C32.0084 13.7932 31.97 13.8923 31.9042 13.9748L24.7767 22.5L31.9152 31.0307C31.981 31.1077 32.0139 31.2123 32.0139 31.3168Z" fill="#090909"/>
</svg>
