<svg width="16" height="16" viewBox="0 0 16 16" fill="none" xmlns="http://www.w3.org/2000/svg">
<path d="M9.73533 1.78015C9.74469 1.74261 9.76142 1.7073 9.78454 1.67628C9.80765 1.64526 9.8367 1.61914 9.87 1.59943C9.90329 1.57973 9.94017 1.56683 9.97849 1.56149C10.0168 1.55615 10.0558 1.55848 10.0932 1.56834C11.1322 1.84975 12.0794 2.39831 12.8405 3.15946C13.6017 3.92061 14.1503 4.8678 14.4317 5.90679C14.4415 5.9442 14.4438 5.98319 14.4385 6.02151C14.4332 6.05983 14.4203 6.09671 14.4006 6.13C14.3809 6.1633 14.3547 6.19235 14.3237 6.21546C14.2927 6.23858 14.2574 6.25531 14.2199 6.26467L14.1468 6.27928C14.082 6.27849 14.0192 6.25671 13.9679 6.2172C13.9165 6.17769 13.8793 6.12259 13.862 6.06016C13.6082 5.12054 13.1125 4.26389 12.4243 3.57567C11.7361 2.88746 10.8795 2.39176 9.93983 2.13803C9.90243 2.12877 9.86729 2.11201 9.83655 2.08878C9.80581 2.06554 9.7801 2.03632 9.76098 2.00286C9.74187 1.9694 9.72974 1.93241 9.72533 1.89413C9.72092 1.85585 9.72432 1.81707 9.73533 1.78015ZM9.33362 4.3949C9.87823 4.54097 10.3748 4.82775 10.7735 5.22646C11.1722 5.62517 11.459 6.12177 11.6051 6.66638C11.6225 6.7288 11.6596 6.78391 11.711 6.82341C11.7624 6.86292 11.8252 6.88471 11.8899 6.88549L11.963 6.87088C12.0004 6.86162 12.0355 6.84487 12.0663 6.82163C12.097 6.7984 12.1227 6.76917 12.1418 6.73571C12.161 6.70225 12.1731 6.66527 12.1775 6.62699C12.1819 6.58871 12.1785 6.54993 12.1675 6.513C11.9973 5.86924 11.6596 5.28205 11.1888 4.81121C10.7179 4.34037 10.1308 4.00268 9.487 3.83251C9.45007 3.8215 9.4113 3.8181 9.37301 3.82251C9.33473 3.82692 9.29774 3.83905 9.26429 3.85817C9.23083 3.87728 9.2016 3.90299 9.17837 3.93373C9.15513 3.96447 9.13838 3.99961 9.12912 4.03702C9.10896 4.11159 9.11917 4.1911 9.15749 4.25817C9.19582 4.32524 9.25914 4.3744 9.33362 4.3949ZM14.9941 11.6841C14.8753 12.6 14.4274 13.4415 13.734 14.0516C13.0406 14.6617 12.1489 14.9988 11.2253 15C5.58678 15 1 10.4132 1 4.7747C1.00119 3.85108 1.33827 2.95943 1.94838 2.266C2.55849 1.57258 3.39997 1.12472 4.31592 1.00594C4.50439 0.983976 4.69492 1.02325 4.85934 1.11795C5.02376 1.21266 5.15333 1.35777 5.22889 1.53182L6.69695 4.95729C6.75379 5.09022 6.77686 5.23513 6.76412 5.37913C6.75138 5.52313 6.70321 5.66175 6.62392 5.78262L5.41149 7.63778C5.38308 7.67913 5.36609 7.72724 5.36224 7.77726C5.35839 7.82728 5.36782 7.87743 5.38958 7.92263C5.96523 9.10359 6.92254 10.0557 8.10659 10.625C8.15048 10.6469 8.1995 10.6564 8.2484 10.6526C8.29729 10.6487 8.34421 10.6316 8.38413 10.6031L10.2174 9.38339C10.3382 9.30104 10.4779 9.2505 10.6234 9.23646C10.7689 9.22242 10.9157 9.24532 11.05 9.30305L14.4682 10.7711C14.6422 10.8467 14.7873 10.9762 14.882 11.1407C14.9768 11.3051 15.016 11.4956 14.9941 11.6841ZM14.2345 11.3116L10.8163 9.84353C10.7719 9.8238 10.7232 9.81547 10.6747 9.81929C10.6263 9.82312 10.5795 9.83898 10.5387 9.86544L8.7128 11.0852C8.58736 11.1704 8.44182 11.2212 8.29063 11.2328C8.13944 11.2443 7.98786 11.2161 7.85095 11.1509C6.55141 10.5211 5.49987 9.47471 4.8637 8.17826C4.79888 8.04161 4.77021 7.89061 4.78044 7.73971C4.79067 7.58882 4.83946 7.44307 4.92213 7.31642L6.13456 5.46125C6.16166 5.42073 6.1779 5.37394 6.18174 5.32534C6.18557 5.27675 6.17687 5.22798 6.15647 5.18371L4.68841 1.76554C4.66793 1.71226 4.6319 1.66637 4.58502 1.63381C4.53814 1.60125 4.48255 1.58353 4.42548 1.58294H4.38896C3.61375 1.68399 2.90174 2.06352 2.38571 2.65078C1.86968 3.23804 1.58484 3.99293 1.5843 4.7747C1.58624 7.33106 2.6026 9.78216 4.41022 11.5898C6.21784 13.3974 8.66894 14.4138 11.2253 14.4157C12.0071 14.4152 12.762 14.1303 13.3492 13.6143C13.9365 13.0983 14.316 12.3863 14.4171 11.611C14.4231 11.5481 14.4086 11.4849 14.3757 11.4309C14.3428 11.3769 14.2932 11.335 14.2345 11.3116Z" fill="#FBC11E" stroke="#FBC11E" stroke-width="0.7"/>
</svg>
