<svg width="40" height="40" viewBox="0 0 40 40" fill="none" xmlns="http://www.w3.org/2000/svg">
<rect width="40" height="40" rx="6" fill="white"/>
<path d="M20.4375 11C16.6969 11 13 13.4668 13 17.4591C13 19.9981 14.4438 21.4406 15.3188 21.4406C15.6797 21.4406 15.8875 20.4453 15.8875 20.164C15.8875 19.8286 15.0234 19.1145 15.0234 17.7188C15.0234 14.8192 17.2547 12.7635 20.1422 12.7635C22.625 12.7635 24.4625 14.1592 24.4625 16.7234C24.4625 18.6384 23.6859 22.2304 21.1703 22.2304C20.2625 22.2304 19.4859 21.5813 19.4859 20.6508C19.4859 19.2876 20.4484 17.9676 20.4484 16.5611C20.4484 14.1737 17.025 14.6064 17.025 17.4916C17.025 18.0975 17.1016 18.7683 17.375 19.32C16.8719 21.4623 15.8438 24.654 15.8438 26.8611C15.8438 27.5427 15.9422 28.2135 16.0078 28.8951C16.1318 29.0322 16.0698 29.0178 16.2594 28.9492C18.0969 26.4608 18.0313 25.9739 18.8625 22.7173C19.3109 23.5612 20.4703 24.0156 21.3891 24.0156C25.2609 24.0156 27 20.283 27 16.9182C27 13.337 23.8719 11 20.4375 11Z" fill="#564344"/>
</svg>
