<svg width="274" height="139" viewBox="0 0 274 139" fill="none" xmlns="http://www.w3.org/2000/svg">
<path d="M80.8828 105.25L73.4062 105.648C73.375 104.18 73.1484 102.75 72.7266 101.359C72.3047 99.9688 71.6719 98.7344 70.8281 97.6562C70 96.5625 68.9688 95.6875 67.7344 95.0312C66.5156 94.3594 65.0938 94.0234 63.4688 94.0234C62.0469 94.0234 60.7812 94.2578 59.6719 94.7266C58.5625 95.1797 57.5781 95.7969 56.7188 96.5781C55.875 97.3594 55.1484 98.2812 54.5391 99.3438C53.9453 100.391 53.4609 101.508 53.0859 102.695C52.7109 103.867 52.4375 105.086 52.2656 106.352C52.0938 107.602 52.0078 108.82 52.0078 110.008C52.0078 111.258 52.0781 112.531 52.2188 113.828C52.375 115.109 52.625 116.359 52.9688 117.578C53.3125 118.781 53.7656 119.922 54.3281 121C54.9062 122.062 55.6172 122.992 56.4609 123.789C57.3203 124.586 58.3203 125.219 59.4609 125.688C60.6172 126.141 61.9531 126.367 63.4688 126.367C65.0938 126.367 66.5 126.078 67.6875 125.5C68.8906 124.922 69.8906 124.141 70.6875 123.156C71.4844 122.172 72.0938 121.023 72.5156 119.711C72.9375 118.398 73.1875 117.008 73.2656 115.539L80.6016 115.914C80.0078 117.867 79.1406 119.633 78 121.211C76.875 122.789 75.5547 124.133 74.0391 125.242C72.5391 126.352 70.8672 127.203 69.0234 127.797C67.1953 128.391 65.2812 128.688 63.2812 128.688C60.5156 128.688 58.0312 128.219 55.8281 127.281C53.6406 126.359 51.7734 125.07 50.2266 123.414C48.6953 121.758 47.5156 119.789 46.6875 117.508C45.875 115.227 45.4688 112.727 45.4688 110.008C45.4688 107.398 45.8984 104.977 46.7578 102.742C47.6328 100.508 48.8516 98.5781 50.4141 96.9531C51.9922 95.3125 53.875 94.0312 56.0625 93.1094C58.25 92.1875 60.6562 91.7266 63.2812 91.7266C65.375 91.7266 67.375 92.0391 69.2812 92.6641C71.2031 93.2734 72.9375 94.1641 74.4844 95.3359C76.0469 96.4922 77.3828 97.9062 78.4922 99.5781C79.6016 101.25 80.3984 103.141 80.8828 105.25ZM100.406 126.719L100.992 124.258C100.445 124.742 99.8359 125.18 99.1641 125.57C98.5078 125.961 97.8281 126.297 97.125 126.578C96.4219 126.844 95.7188 127.047 95.0156 127.188C94.3281 127.344 93.6953 127.422 93.1172 127.422C92.1016 127.422 91.0547 127.273 89.9766 126.977C88.8984 126.68 87.9219 126.234 87.0469 125.641C86.1719 125.047 85.4531 124.305 84.8906 123.414C84.3281 122.523 84.0469 121.492 84.0469 120.32C84.0469 118.789 84.3125 117.461 84.8438 116.336C85.375 115.211 86.0938 114.281 87 113.547C87.9219 112.812 89 112.273 90.2344 111.93C91.4688 111.57 92.7969 111.391 94.2188 111.391C94.8906 111.391 95.5781 111.445 96.2812 111.555C96.9844 111.664 97.6719 111.828 98.3438 112.047C99.0156 112.266 99.6562 112.555 100.266 112.914C100.875 113.273 101.422 113.695 101.906 114.18C101.859 113.336 101.742 112.445 101.555 111.508C101.383 110.57 101.102 109.719 100.711 108.953C100.336 108.172 99.8281 107.531 99.1875 107.031C98.5469 106.516 97.7344 106.258 96.75 106.258C95.3125 106.258 94.0938 106.633 93.0938 107.383C92.1094 108.117 91.4297 109.188 91.0547 110.594L84.9609 109.961C85.3359 108.992 85.8672 108.141 86.5547 107.406C87.2422 106.656 88.0156 106.031 88.875 105.531C89.75 105.031 90.6797 104.656 91.6641 104.406C92.6484 104.141 93.6406 104.008 94.6406 104.008C96.1719 104.008 97.5391 104.227 98.7422 104.664C99.9609 105.102 101.031 105.703 101.953 106.469C102.875 107.234 103.656 108.141 104.297 109.188C104.938 110.219 105.461 111.336 105.867 112.539C106.273 113.727 106.57 114.977 106.758 116.289C106.945 117.586 107.039 118.883 107.039 120.18C107.039 121.336 106.977 122.484 106.852 123.625C106.727 124.75 106.547 125.875 106.312 127L100.406 126.719ZM101.648 120.086C101.695 119.727 101.727 119.375 101.742 119.031C101.773 118.688 101.805 118.336 101.836 117.977C101.758 117.242 101.5 116.594 101.062 116.031C100.625 115.453 100.094 114.969 99.4688 114.578C98.8438 114.172 98.1641 113.867 97.4297 113.664C96.6953 113.461 95.9766 113.359 95.2734 113.359C94.4609 113.359 93.7031 113.5 93 113.781C92.2969 114.047 91.6875 114.43 91.1719 114.93C90.6562 115.43 90.25 116.023 89.9531 116.711C89.6562 117.398 89.5078 118.156 89.5078 118.984C89.5078 119.828 89.6328 120.602 89.8828 121.305C90.1484 121.992 90.5156 122.594 90.9844 123.109C91.4531 123.609 92.0234 124 92.6953 124.281C93.3828 124.562 94.1484 124.703 94.9922 124.703C95.7422 124.703 96.4766 124.594 97.1953 124.375C97.9141 124.156 98.5703 123.852 99.1641 123.461C99.7734 123.055 100.289 122.57 100.711 122.008C101.148 121.43 101.461 120.789 101.648 120.086ZM118.195 104.148L117.867 110.289C118.273 109.539 118.75 108.805 119.297 108.086C119.844 107.352 120.438 106.672 121.078 106.047C121.734 105.406 122.422 104.828 123.141 104.312C123.875 103.781 124.625 103.344 125.391 103V110.828C125.062 110.469 124.688 110.211 124.266 110.055C123.844 109.898 123.391 109.82 122.906 109.82C122.188 109.82 121.547 109.938 120.984 110.172C120.422 110.406 119.93 110.727 119.508 111.133C119.086 111.523 118.727 111.992 118.43 112.539C118.133 113.07 117.883 113.633 117.68 114.227L117 126.859L112.875 127.141L111.516 104.547L118.195 104.148ZM135.445 104.547L135.211 108.812C135.633 108.047 136.125 107.336 136.688 106.68C137.266 106.008 137.906 105.445 138.609 104.992C139.328 104.523 140.102 104.18 140.93 103.961C141.773 103.742 142.664 103.695 143.602 103.82C145.086 104.039 146.344 104.492 147.375 105.18C148.406 105.867 149.234 106.742 149.859 107.805C150.5 108.867 150.961 110.102 151.242 111.508C151.523 112.914 151.664 114.445 151.664 116.102C151.664 117.023 151.586 117.992 151.43 119.008C151.273 120.023 151.062 121.039 150.797 122.055C150.531 123.055 150.227 124.039 149.883 125.008C149.555 125.977 149.219 126.883 148.875 127.727L143.086 127.141C143.117 127.125 143.219 126.938 143.391 126.578C143.562 126.219 143.766 125.734 144 125.125C144.234 124.516 144.477 123.805 144.727 122.992C144.992 122.164 145.234 121.273 145.453 120.32C145.688 119.367 145.875 118.367 146.016 117.32C146.172 116.258 146.25 115.195 146.25 114.133C146.25 112.961 146.148 111.922 145.945 111.016C145.742 110.109 145.422 109.344 144.984 108.719C144.562 108.094 144.016 107.617 143.344 107.289C142.672 106.961 141.859 106.797 140.906 106.797C140.078 106.797 139.344 107.023 138.703 107.477C138.062 107.914 137.5 108.484 137.016 109.188C136.531 109.891 136.117 110.688 135.773 111.578C135.43 112.453 135.141 113.336 134.906 114.227L134.297 126.859L129.938 127.234L129.023 105.062L135.445 104.547ZM163.922 99.3438C163.922 99.9062 163.812 100.438 163.594 100.938C163.391 101.438 163.102 101.875 162.727 102.25C162.352 102.625 161.914 102.922 161.414 103.141C160.914 103.359 160.375 103.469 159.797 103.469C159.219 103.469 158.672 103.359 158.156 103.141C157.656 102.922 157.219 102.625 156.844 102.25C156.469 101.875 156.172 101.438 155.953 100.938C155.734 100.438 155.625 99.9062 155.625 99.3438C155.625 98.7656 155.734 98.2266 155.953 97.7266C156.172 97.2109 156.469 96.7656 156.844 96.3906C157.219 96.0156 157.656 95.7188 158.156 95.5C158.672 95.2812 159.219 95.1719 159.797 95.1719C160.375 95.1719 160.914 95.2812 161.414 95.5C161.914 95.7188 162.352 96.0156 162.727 96.3906C163.102 96.7656 163.391 97.2109 163.594 97.7266C163.812 98.2266 163.922 98.7656 163.922 99.3438ZM163.125 105.836L161.344 128.383L156.82 127.914L156.539 105.484L163.125 105.836ZM191.297 105.555C189.422 109.773 187.453 113.945 185.391 118.07C184.625 119.664 183.828 121.234 183 122.781C182.172 124.312 181.273 125.828 180.305 127.328L175.312 127.586C174.375 125.445 173.453 123.328 172.547 121.234C171.641 119.125 170.758 117 169.898 114.859C169.211 113.266 168.547 111.672 167.906 110.078C167.281 108.469 166.68 106.844 166.102 105.203L174.539 104.148C174.555 105.789 174.648 107.531 174.82 109.375C174.992 111.219 175.242 113.07 175.57 114.93C175.914 116.789 176.328 118.609 176.812 120.391C177.312 122.156 177.883 123.781 178.523 125.266C179.023 124.375 179.508 123.375 179.977 122.266C180.461 121.156 180.914 119.992 181.336 118.773C181.758 117.555 182.148 116.297 182.508 115C182.867 113.703 183.188 112.422 183.469 111.156C183.75 109.891 183.984 108.664 184.172 107.477C184.359 106.289 184.492 105.18 184.57 104.148L191.297 105.555ZM209.578 126.719L210.164 124.258C209.617 124.742 209.008 125.18 208.336 125.57C207.68 125.961 207 126.297 206.297 126.578C205.594 126.844 204.891 127.047 204.188 127.188C203.5 127.344 202.867 127.422 202.289 127.422C201.273 127.422 200.227 127.273 199.148 126.977C198.07 126.68 197.094 126.234 196.219 125.641C195.344 125.047 194.625 124.305 194.062 123.414C193.5 122.523 193.219 121.492 193.219 120.32C193.219 118.789 193.484 117.461 194.016 116.336C194.547 115.211 195.266 114.281 196.172 113.547C197.094 112.812 198.172 112.273 199.406 111.93C200.641 111.57 201.969 111.391 203.391 111.391C204.062 111.391 204.75 111.445 205.453 111.555C206.156 111.664 206.844 111.828 207.516 112.047C208.188 112.266 208.828 112.555 209.438 112.914C210.047 113.273 210.594 113.695 211.078 114.18C211.031 113.336 210.914 112.445 210.727 111.508C210.555 110.57 210.273 109.719 209.883 108.953C209.508 108.172 209 107.531 208.359 107.031C207.719 106.516 206.906 106.258 205.922 106.258C204.484 106.258 203.266 106.633 202.266 107.383C201.281 108.117 200.602 109.188 200.227 110.594L194.133 109.961C194.508 108.992 195.039 108.141 195.727 107.406C196.414 106.656 197.188 106.031 198.047 105.531C198.922 105.031 199.852 104.656 200.836 104.406C201.82 104.141 202.812 104.008 203.812 104.008C205.344 104.008 206.711 104.227 207.914 104.664C209.133 105.102 210.203 105.703 211.125 106.469C212.047 107.234 212.828 108.141 213.469 109.188C214.109 110.219 214.633 111.336 215.039 112.539C215.445 113.727 215.742 114.977 215.93 116.289C216.117 117.586 216.211 118.883 216.211 120.18C216.211 121.336 216.148 122.484 216.023 123.625C215.898 124.75 215.719 125.875 215.484 127L209.578 126.719ZM210.82 120.086C210.867 119.727 210.898 119.375 210.914 119.031C210.945 118.688 210.977 118.336 211.008 117.977C210.93 117.242 210.672 116.594 210.234 116.031C209.797 115.453 209.266 114.969 208.641 114.578C208.016 114.172 207.336 113.867 206.602 113.664C205.867 113.461 205.148 113.359 204.445 113.359C203.633 113.359 202.875 113.5 202.172 113.781C201.469 114.047 200.859 114.43 200.344 114.93C199.828 115.43 199.422 116.023 199.125 116.711C198.828 117.398 198.68 118.156 198.68 118.984C198.68 119.828 198.805 120.602 199.055 121.305C199.32 121.992 199.688 122.594 200.156 123.109C200.625 123.609 201.195 124 201.867 124.281C202.555 124.562 203.32 124.703 204.164 124.703C204.914 124.703 205.648 124.594 206.367 124.375C207.086 124.156 207.742 123.852 208.336 123.461C208.945 123.055 209.461 122.57 209.883 122.008C210.32 121.43 210.633 120.789 210.82 120.086ZM227.32 89.4531L226.172 127.094L221.695 127.469L220.547 90.0859L227.32 89.4531Z" fill="#FBC11E"/>
<path d="M109.172 19.5L108.984 22.5469C108.453 22.3594 107.833 22.2135 107.125 22.1094C106.427 21.9948 105.708 21.9062 104.969 21.8438C104.229 21.7812 103.505 21.7396 102.797 21.7188C102.089 21.6979 101.453 21.6875 100.891 21.6875H100.469L101.375 42.0625H96.5781L97.1406 21.8438C96.3698 21.9062 95.5781 21.9948 94.7656 22.1094C93.9635 22.2135 93.1875 22.349 92.4375 22.5156C91.6979 22.6719 91.0104 22.8594 90.375 23.0781C89.7396 23.2969 89.2135 23.5469 88.7969 23.8281L88.5 19.625L109.172 19.5ZM115.609 19.1875L115.078 29.9062C115.339 29.4062 115.646 28.9531 116 28.5469C116.354 28.1302 116.75 27.776 117.188 27.4844C117.635 27.1823 118.125 26.9531 118.656 26.7969C119.188 26.6302 119.766 26.5469 120.391 26.5469C121.078 26.5469 121.688 26.6771 122.219 26.9375C122.76 27.1875 123.229 27.526 123.625 27.9531C124.031 28.3802 124.37 28.875 124.641 29.4375C124.922 29.9896 125.146 30.5677 125.312 31.1719C125.49 31.776 125.615 32.3854 125.688 33C125.76 33.6146 125.797 34.1927 125.797 34.7344C125.797 35.349 125.76 35.9948 125.688 36.6719C125.615 37.349 125.51 38.026 125.375 38.7031C125.24 39.3698 125.073 40.026 124.875 40.6719C124.688 41.3177 124.479 41.9219 124.25 42.4844L120.391 42.0938C120.682 41.5729 120.938 40.9479 121.156 40.2188C121.385 39.4792 121.573 38.7083 121.719 37.9062C121.865 37.1042 121.974 36.3125 122.047 35.5312C122.13 34.7396 122.172 34.0365 122.172 33.4219C122.172 32.9115 122.12 32.3698 122.016 31.7969C121.922 31.224 121.75 30.6979 121.5 30.2188C121.26 29.7292 120.932 29.3281 120.516 29.0156C120.099 28.6927 119.573 28.5312 118.938 28.5312C118.552 28.5312 118.198 28.6094 117.875 28.7656C117.562 28.9115 117.271 29.1042 117 29.3438C116.74 29.5833 116.505 29.8594 116.297 30.1719C116.089 30.4844 115.906 30.8021 115.75 31.125C115.375 31.8854 115.083 32.75 114.875 33.7188L114.531 41.2656L111.609 41.5156L111 19.5312L115.609 19.1875ZM136.953 37.6094C136.13 37.6094 135.312 37.5052 134.5 37.2969C133.698 37.0781 132.969 36.7344 132.312 36.2656C132.323 36.6719 132.349 37.0885 132.391 37.5156C132.432 37.9427 132.5 38.3594 132.594 38.7656C132.698 39.1615 132.828 39.5365 132.984 39.8906C133.151 40.2448 133.359 40.5573 133.609 40.8281C133.87 41.0885 134.177 41.2969 134.531 41.4531C134.896 41.6094 135.328 41.6875 135.828 41.6875C136.297 41.6875 136.734 41.6042 137.141 41.4375C137.547 41.2604 137.901 41.026 138.203 40.7344C138.516 40.4427 138.771 40.099 138.969 39.7031C139.167 39.3073 139.302 38.8802 139.375 38.4219L143.219 39.2812C142.917 39.9271 142.49 40.474 141.938 40.9219C141.396 41.3698 140.792 41.7292 140.125 42C139.458 42.2812 138.76 42.4844 138.031 42.6094C137.312 42.7344 136.62 42.7969 135.953 42.7969C134.755 42.7969 133.688 42.6198 132.75 42.2656C131.812 41.9115 131.021 41.401 130.375 40.7344C129.74 40.0677 129.25 39.2604 128.906 38.3125C128.573 37.3542 128.406 36.2812 128.406 35.0938C128.406 33.9375 128.604 32.849 129 31.8281C129.396 30.7969 129.948 29.901 130.656 29.1406C131.365 28.3802 132.214 27.7812 133.203 27.3438C134.203 26.8958 135.302 26.6719 136.5 26.6719C137.375 26.6719 138.245 26.7812 139.109 27C139.974 27.2083 140.75 27.5417 141.438 28C142.125 28.4479 142.677 29.026 143.094 29.7344C143.521 30.4427 143.734 31.2969 143.734 32.2969C143.734 33.276 143.536 34.1042 143.141 34.7812C142.755 35.4479 142.245 35.9948 141.609 36.4219C140.974 36.8385 140.25 37.1406 139.438 37.3281C138.625 37.5156 137.797 37.6094 136.953 37.6094ZM136.281 27.8281C135.802 27.8281 135.375 27.9271 135 28.125C134.635 28.3125 134.307 28.5729 134.016 28.9062C133.734 29.2396 133.495 29.6198 133.297 30.0469C133.099 30.474 132.932 30.9219 132.797 31.3906C132.661 31.8594 132.557 32.3333 132.484 32.8125C132.411 33.2917 132.365 33.7396 132.344 34.1562C132.74 34.8333 133.266 35.3906 133.922 35.8281C134.578 36.2552 135.339 36.4688 136.203 36.4688C136.755 36.4688 137.25 36.3438 137.688 36.0938C138.125 35.8333 138.495 35.5 138.797 35.0938C139.099 34.6875 139.328 34.2344 139.484 33.7344C139.651 33.2344 139.734 32.7344 139.734 32.2344C139.734 31.7344 139.661 31.224 139.516 30.7031C139.37 30.1719 139.151 29.6979 138.859 29.2812C138.578 28.8542 138.219 28.5052 137.781 28.2344C137.354 27.9635 136.854 27.8281 136.281 27.8281Z" fill="black"/>
<path d="M26.1523 89.4609C23.4102 89.4609 20.8438 89.1211 18.4531 88.4414C16.0625 87.7617 13.8828 86.7422 11.9141 85.3828C9.94531 84.0234 8.19922 82.3242 6.67578 80.2852C5.17578 78.2461 3.94531 75.8789 2.98438 73.1836L15.1484 72.5156C15.3359 76.8281 16.5664 80.1211 18.8398 82.3945C21.1133 84.6445 24.3242 85.7695 28.4727 85.7695C30.0898 85.7695 31.707 85.6055 33.3242 85.2773C34.9414 84.9492 36.3828 84.3984 37.6484 83.625C38.9375 82.8281 39.9805 81.7852 40.7773 80.4961C41.5977 79.207 42.0078 77.6016 42.0078 75.6797C42.0078 74.3438 41.75 73.207 41.2344 72.2695C40.7188 71.3086 40.0273 70.5117 39.1602 69.8789C38.3164 69.2461 37.332 68.7422 36.207 68.3672C35.1055 67.9688 33.957 67.6641 32.7617 67.4531C31.5898 67.2188 30.418 67.043 29.2461 66.9258C28.0742 66.8086 26.9961 66.7031 26.0117 66.6094C24.418 66.4922 22.7539 66.3047 21.0195 66.0469C19.2852 65.7891 17.5742 65.4258 15.8867 64.957C14.2227 64.4883 12.6289 63.8906 11.1055 63.1641C9.58203 62.4375 8.24609 61.5234 7.09766 60.4219C5.94922 59.2969 5.03516 57.9727 4.35547 56.4492C3.67578 54.9258 3.33594 53.1328 3.33594 51.0703C3.33594 49.1016 3.66406 47.3203 4.32031 45.7266C4.97656 44.1328 5.86719 42.7266 6.99219 41.5078C8.14062 40.2656 9.45312 39.1992 10.9297 38.3086C12.4297 37.3945 14.0117 36.6562 15.6758 36.0938C17.3633 35.5078 19.0859 35.0742 20.8438 34.793C22.6016 34.5117 24.3008 34.3711 25.9414 34.3711C27.6055 34.3711 29.3516 34.4766 31.1797 34.6875C33.0312 34.8984 34.8711 35.25 36.6992 35.7422C38.5273 36.2344 40.2852 36.8789 41.9727 37.6758C43.6836 38.4492 45.2188 39.4102 46.5781 40.5586C47.9609 41.707 49.1094 43.0547 50.0234 44.6016C50.9375 46.125 51.5352 47.8711 51.8164 49.8398L40.0742 52.2305C40.2148 51.3633 40.2852 50.4727 40.2852 49.5586C40.2852 47.4258 39.8516 45.6211 38.9844 44.1445C38.1172 42.668 36.9688 41.4844 35.5391 40.5938C34.1094 39.6797 32.4922 39.0234 30.6875 38.625C28.8828 38.2266 27.043 38.0273 25.168 38.0273C23.5039 38.0273 21.8516 38.25 20.2109 38.6953C18.5938 39.1172 17.1289 39.7617 15.8164 40.6289C14.5273 41.4961 13.4844 42.5859 12.6875 43.8984C11.8906 45.2109 11.4922 46.7578 11.4922 48.5391C11.4922 49.7578 11.8203 50.8125 12.4766 51.7031C13.1328 52.5938 13.9883 53.3672 15.043 54.0234C16.1211 54.6562 17.3281 55.1836 18.6641 55.6055C20 56.0273 21.3359 56.3789 22.6719 56.6602C24.0312 56.918 25.3203 57.1289 26.5391 57.293C27.7578 57.4336 28.7891 57.5391 29.6328 57.6094C31.1328 57.7734 32.7031 58.0078 34.3438 58.3125C35.9844 58.5938 37.6016 58.9922 39.1953 59.5078C40.7891 60.0234 42.3125 60.668 43.7656 61.4414C45.2188 62.2148 46.4844 63.1523 47.5625 64.2539C48.6641 65.3555 49.5312 66.6445 50.1641 68.1211C50.8203 69.5977 51.1484 71.2852 51.1484 73.1836C51.1484 75.1992 50.75 77.0039 49.9531 78.5977C49.1562 80.168 48.0898 81.5625 46.7539 82.7812C45.4414 83.9766 43.9297 85.0078 42.2188 85.875C40.5078 86.7188 38.7266 87.3984 36.875 87.9141C35.0234 88.4531 33.1719 88.8398 31.3203 89.0742C29.4688 89.332 27.7461 89.4609 26.1523 89.4609ZM92.7031 54.5156L90.5938 87.0703L84.4062 87.6328L84.0547 79.7227C83.5156 81.0352 82.8477 82.2422 82.0508 83.3438C81.2539 84.4453 80.3281 85.3945 79.2734 86.1914C78.2422 86.9883 77.082 87.6094 75.793 88.0547C74.5039 88.5 73.1094 88.7227 71.6094 88.7227C69.2656 88.7227 67.1914 88.2539 65.3867 87.3164C63.6055 86.4023 62.1055 85.125 60.8867 83.4844C59.6914 81.8438 58.7891 79.8984 58.1797 77.6484C57.5703 75.375 57.2656 72.9023 57.2656 70.2305C57.2656 67.3477 57.4766 64.8398 57.8984 62.707C58.3203 60.5508 58.8008 58.7344 59.3398 57.2578C59.9492 55.5469 60.6523 54.082 61.4492 52.8633L71.5039 53.7422C70.3555 55.125 69.3359 56.7773 68.4453 58.6992C67.6719 60.3398 66.9688 62.3789 66.3359 64.8164C65.7031 67.2539 65.3867 70.0664 65.3867 73.2539C65.3867 75.1758 65.6094 76.8281 66.0547 78.2109C66.5 79.5938 67.1328 80.7422 67.9531 81.6562C68.7734 82.5469 69.7578 83.2031 70.9062 83.625C72.0781 84.0469 73.3906 84.2578 74.8438 84.2578C76.0859 84.2578 77.1875 83.918 78.1484 83.2383C79.1094 82.5586 79.9531 81.6797 80.6797 80.6016C81.4062 79.5234 82.0156 78.3047 82.5078 76.9453C83.0234 75.5859 83.4453 74.2383 83.7734 72.9023L83.0352 53.9531L92.7031 54.5156ZM108.383 60C108.969 59.1094 109.648 58.2656 110.422 57.4688C111.195 56.6484 112.062 55.9453 113.023 55.3594C114.008 54.75 115.074 54.2695 116.223 53.918C117.395 53.5664 118.648 53.3906 119.984 53.3906C121.719 53.3906 123.172 53.7656 124.344 54.5156C125.516 55.2422 126.465 56.2031 127.191 57.3984C128.668 56.0156 130.344 54.9023 132.219 54.0586C134.094 53.2148 136.016 52.793 137.984 52.793C139.414 52.793 140.68 53.0508 141.781 53.5664C142.906 54.0586 143.879 54.7383 144.699 55.6055C145.543 56.4492 146.246 57.4336 146.809 58.5586C147.371 59.6836 147.816 60.8672 148.145 62.1094C148.496 63.3516 148.742 64.6172 148.883 65.9062C149.047 67.1719 149.129 68.3906 149.129 69.5625C149.129 70.875 149.035 72.3984 148.848 74.1328C148.684 75.8438 148.438 77.5898 148.109 79.3711C147.781 81.1523 147.383 82.8633 146.914 84.5039C146.469 86.1211 145.965 87.4805 145.402 88.582L135.805 87.7031C136.695 85.9922 137.492 84.1406 138.195 82.1484C138.805 80.4375 139.355 78.4805 139.848 76.2773C140.34 74.0508 140.586 71.6953 140.586 69.2109C140.586 67.6641 140.492 66.2109 140.305 64.8516C140.117 63.4922 139.766 62.3203 139.25 61.3359C138.758 60.3281 138.066 59.5312 137.176 58.9453C136.309 58.3594 135.184 58.0664 133.801 58.0664C132.816 58.0664 131.879 58.2773 130.988 58.6992C130.121 59.0977 129.277 59.625 128.457 60.2812C128.832 61.4062 129.09 62.5781 129.23 63.7969C129.395 64.9922 129.477 66.1758 129.477 67.3477C129.477 68.543 129.418 70.0078 129.301 71.7422C129.184 73.4766 129.02 75.2578 128.809 77.0859C128.621 78.8906 128.398 80.6133 128.141 82.2539C127.906 83.8945 127.66 85.207 127.402 86.1914L117.805 85.4883C118.438 83.7773 119 81.9141 119.492 79.8984C119.914 78.1641 120.301 76.1484 120.652 73.8516C121.027 71.5547 121.215 69.0938 121.215 66.4688C121.215 65.6484 121.109 64.7695 120.898 63.832C120.711 62.8711 120.383 61.9922 119.914 61.1953C119.469 60.375 118.871 59.6953 118.121 59.1562C117.395 58.6172 116.504 58.3477 115.449 58.3477C114.77 58.3477 114.113 58.5469 113.48 58.9453C112.848 59.3203 112.238 59.8242 111.652 60.457C111.066 61.0898 110.504 61.8281 109.965 62.6719C109.449 63.4922 108.969 64.3594 108.523 65.2734L109.402 86.7891L100.016 87.7031L101.844 54.2344L108.172 54.7266L108.383 60ZM164.422 60C165.008 59.1094 165.688 58.2656 166.461 57.4688C167.234 56.6484 168.102 55.9453 169.062 55.3594C170.047 54.75 171.113 54.2695 172.262 53.918C173.434 53.5664 174.688 53.3906 176.023 53.3906C177.758 53.3906 179.211 53.7656 180.383 54.5156C181.555 55.2422 182.504 56.2031 183.23 57.3984C184.707 56.0156 186.383 54.9023 188.258 54.0586C190.133 53.2148 192.055 52.793 194.023 52.793C195.453 52.793 196.719 53.0508 197.82 53.5664C198.945 54.0586 199.918 54.7383 200.738 55.6055C201.582 56.4492 202.285 57.4336 202.848 58.5586C203.41 59.6836 203.855 60.8672 204.184 62.1094C204.535 63.3516 204.781 64.6172 204.922 65.9062C205.086 67.1719 205.168 68.3906 205.168 69.5625C205.168 70.875 205.074 72.3984 204.887 74.1328C204.723 75.8438 204.477 77.5898 204.148 79.3711C203.82 81.1523 203.422 82.8633 202.953 84.5039C202.508 86.1211 202.004 87.4805 201.441 88.582L191.844 87.7031C192.734 85.9922 193.531 84.1406 194.234 82.1484C194.844 80.4375 195.395 78.4805 195.887 76.2773C196.379 74.0508 196.625 71.6953 196.625 69.2109C196.625 67.6641 196.531 66.2109 196.344 64.8516C196.156 63.4922 195.805 62.3203 195.289 61.3359C194.797 60.3281 194.105 59.5312 193.215 58.9453C192.348 58.3594 191.223 58.0664 189.84 58.0664C188.855 58.0664 187.918 58.2773 187.027 58.6992C186.16 59.0977 185.316 59.625 184.496 60.2812C184.871 61.4062 185.129 62.5781 185.27 63.7969C185.434 64.9922 185.516 66.1758 185.516 67.3477C185.516 68.543 185.457 70.0078 185.34 71.7422C185.223 73.4766 185.059 75.2578 184.848 77.0859C184.66 78.8906 184.438 80.6133 184.18 82.2539C183.945 83.8945 183.699 85.207 183.441 86.1914L173.844 85.4883C174.477 83.7773 175.039 81.9141 175.531 79.8984C175.953 78.1641 176.34 76.1484 176.691 73.8516C177.066 71.5547 177.254 69.0938 177.254 66.4688C177.254 65.6484 177.148 64.7695 176.938 63.832C176.75 62.8711 176.422 61.9922 175.953 61.1953C175.508 60.375 174.91 59.6953 174.16 59.1562C173.434 58.6172 172.543 58.3477 171.488 58.3477C170.809 58.3477 170.152 58.5469 169.52 58.9453C168.887 59.3203 168.277 59.8242 167.691 60.457C167.105 61.0898 166.543 61.8281 166.004 62.6719C165.488 63.4922 165.008 64.3594 164.562 65.2734L165.441 86.7891L156.055 87.7031L157.883 54.2344L164.211 54.7266L164.422 60ZM230.27 77.1211C228.418 77.1211 226.578 76.8867 224.75 76.418C222.945 75.9258 221.305 75.1523 219.828 74.0977C219.852 75.0117 219.91 75.9492 220.004 76.9102C220.098 77.8711 220.25 78.8086 220.461 79.7227C220.695 80.6133 220.988 81.457 221.34 82.2539C221.715 83.0508 222.184 83.7539 222.746 84.3633C223.332 84.9492 224.023 85.418 224.82 85.7695C225.641 86.1211 226.613 86.2969 227.738 86.2969C228.793 86.2969 229.777 86.1094 230.691 85.7344C231.605 85.3359 232.402 84.8086 233.082 84.1523C233.785 83.4961 234.359 82.7227 234.805 81.832C235.25 80.9414 235.555 79.9805 235.719 78.9492L244.367 80.8828C243.688 82.3359 242.727 83.5664 241.484 84.5742C240.266 85.582 238.906 86.3906 237.406 87C235.906 87.6328 234.336 88.0898 232.695 88.3711C231.078 88.6523 229.52 88.793 228.02 88.793C225.324 88.793 222.922 88.3945 220.812 87.5977C218.703 86.8008 216.922 85.6523 215.469 84.1523C214.039 82.6523 212.938 80.8359 212.164 78.7031C211.414 76.5469 211.039 74.1328 211.039 71.4609C211.039 68.8594 211.484 66.4102 212.375 64.1133C213.266 61.793 214.508 59.7773 216.102 58.0664C217.695 56.3555 219.605 55.0078 221.832 54.0234C224.082 53.0156 226.555 52.5117 229.25 52.5117C231.219 52.5117 233.176 52.7578 235.121 53.25C237.066 53.7188 238.812 54.4688 240.359 55.5C241.906 56.5078 243.148 57.8086 244.086 59.4023C245.047 60.9961 245.527 62.918 245.527 65.168C245.527 67.3711 245.082 69.2344 244.191 70.7578C243.324 72.2578 242.176 73.4883 240.746 74.4492C239.316 75.3867 237.688 76.0664 235.859 76.4883C234.031 76.9102 232.168 77.1211 230.27 77.1211ZM228.758 55.1133C227.68 55.1133 226.719 55.3359 225.875 55.7812C225.055 56.2031 224.316 56.7891 223.66 57.5391C223.027 58.2891 222.488 59.1445 222.043 60.1055C221.598 61.0664 221.223 62.0742 220.918 63.1289C220.613 64.1836 220.379 65.25 220.215 66.3281C220.051 67.4062 219.945 68.4141 219.898 69.3516C220.789 70.875 221.973 72.1289 223.449 73.1133C224.926 74.0742 226.637 74.5547 228.582 74.5547C229.824 74.5547 230.938 74.2734 231.922 73.7109C232.906 73.125 233.738 72.375 234.418 71.4609C235.098 70.5469 235.613 69.5273 235.965 68.4023C236.34 67.2773 236.527 66.1523 236.527 65.0273C236.527 63.9023 236.363 62.7539 236.035 61.582C235.707 60.3867 235.215 59.3203 234.559 58.3828C233.926 57.4219 233.117 56.6367 232.133 56.0273C231.172 55.418 230.047 55.1133 228.758 55.1133ZM261.629 52.7227L261.137 61.9336C261.746 60.8086 262.461 59.707 263.281 58.6289C264.102 57.5273 264.992 56.5078 265.953 55.5703C266.938 54.6094 267.969 53.7422 269.047 52.9688C270.148 52.1719 271.273 51.5156 272.422 51V62.7422C271.93 62.2031 271.367 61.8164 270.734 61.582C270.102 61.3477 269.422 61.2305 268.695 61.2305C267.617 61.2305 266.656 61.4062 265.812 61.7578C264.969 62.1094 264.23 62.5898 263.598 63.1992C262.965 63.7852 262.426 64.4883 261.98 65.3086C261.535 66.1055 261.16 66.9492 260.855 67.8398L259.836 86.7891L253.648 87.2109L251.609 53.3203L261.629 52.7227Z" fill="#FF0110"/>
</svg>
