<svg width="17" height="19" viewBox="0 0 17 19" fill="none" xmlns="http://www.w3.org/2000/svg">
<path d="M8.5 9.85185C9.62717 9.85185 10.7082 9.40701 11.5052 8.61519C12.3022 7.82337 12.75 6.74943 12.75 5.62963C12.75 4.50983 12.3022 3.43589 11.5052 2.64407C10.7082 1.85225 9.62717 1.40741 8.5 1.40741C7.37283 1.40741 6.29183 1.85225 5.4948 2.64407C4.69777 3.43589 4.25 4.50983 4.25 5.62963C4.25 6.74943 4.69777 7.82337 5.4948 8.61519C6.29183 9.40701 7.37283 9.85185 8.5 9.85185ZM8.5 11.2593C6.99711 11.2593 5.55577 10.6661 4.49306 9.61038C3.43036 8.55462 2.83333 7.1227 2.83333 5.62963C2.83333 4.13656 3.43036 2.70464 4.49306 1.64888C5.55577 0.59312 6.99711 0 8.5 0C10.0029 0 11.4442 0.59312 12.5069 1.64888C13.5696 2.70464 14.1667 4.13656 14.1667 5.62963C14.1667 7.1227 13.5696 8.55462 12.5069 9.61038C11.4442 10.6661 10.0029 11.2593 8.5 11.2593ZM15.5833 18.2963V16.1852C15.5833 15.6253 15.3595 15.0883 14.9609 14.6924C14.5624 14.2965 14.0219 14.0741 13.4583 14.0741H3.54167C2.97808 14.0741 2.43758 14.2965 2.03906 14.6924C1.64055 15.0883 1.41667 15.6253 1.41667 16.1852V18.2963C1.41667 18.4829 1.34204 18.6619 1.2092 18.7939C1.07636 18.9259 0.896195 19 0.708333 19C0.520472 19 0.340304 18.9259 0.207466 18.7939C0.0746279 18.6619 0 18.4829 0 18.2963V16.1852C0 15.252 0.373139 14.3571 1.03733 13.6972C1.70152 13.0374 2.60236 12.6667 3.54167 12.6667H13.4583C14.3976 12.6667 15.2985 13.0374 15.9627 13.6972C16.6269 14.3571 17 15.252 17 16.1852V18.2963C17 18.4829 16.9254 18.6619 16.7925 18.7939C16.6597 18.9259 16.4795 19 16.2917 19C16.1038 19 15.9236 18.9259 15.7908 18.7939C15.658 18.6619 15.5833 18.4829 15.5833 18.2963Z" fill="#574244"/>
</svg>
