<svg width="40" height="40" viewBox="0 0 40 40" fill="none" xmlns="http://www.w3.org/2000/svg">
<rect width="40" height="40" rx="6" fill="white"/>
<path d="M25.6036 13.325C24.1071 11.825 22.1143 11 19.9964 11C15.625 11 12.0679 14.5571 12.0679 18.9286C12.0679 20.325 12.4321 21.6893 13.125 22.8929L12 27L16.2036 25.8964C17.3607 26.5286 18.6643 26.8607 19.9929 26.8607H19.9964C24.3643 26.8607 28 23.3036 28 18.9321C28 16.8143 27.1 14.825 25.6036 13.325V13.325ZM19.9964 25.525C18.8107 25.525 17.65 25.2071 16.6393 24.6071L16.4 24.4643L13.9071 25.1179L14.5714 22.6857L14.4143 22.4357C13.7536 21.3857 13.4071 20.175 13.4071 18.9286C13.4071 15.2964 16.3643 12.3393 20 12.3393C21.7607 12.3393 23.4143 13.025 24.6571 14.2714C25.9 15.5179 26.6643 17.1714 26.6607 18.9321C26.6607 22.5679 23.6286 25.525 19.9964 25.525V25.525ZM23.6107 20.5893C23.4143 20.4893 22.4393 20.0107 22.2571 19.9464C22.075 19.8786 21.9429 19.8464 21.8107 20.0464C21.6786 20.2464 21.3 20.6893 21.1821 20.825C21.0679 20.9571 20.95 20.975 20.7536 20.875C19.5893 20.2929 18.825 19.8357 18.0571 18.5179C17.8536 18.1679 18.2607 18.1929 18.6393 17.4357C18.7036 17.3036 18.6714 17.1893 18.6214 17.0893C18.5714 16.9893 18.175 16.0143 18.0107 15.6179C17.85 15.2321 17.6857 15.2857 17.5643 15.2786C17.45 15.2714 17.3179 15.2714 17.1857 15.2714C17.0536 15.2714 16.8393 15.3214 16.6571 15.5179C16.475 15.7179 15.9643 16.1964 15.9643 17.1714C15.9643 18.1464 16.675 19.0893 16.7714 19.2214C16.8714 19.3536 18.1679 21.3536 20.1571 22.2143C21.4143 22.7571 21.9071 22.8036 22.5357 22.7107C22.9179 22.6536 23.7071 22.2321 23.8714 21.7679C24.0357 21.3036 24.0357 20.9071 23.9857 20.825C23.9393 20.7357 23.8071 20.6857 23.6107 20.5893Z" fill="#564344"/>
</svg>
