<svg width="40" height="40" viewBox="0 0 40 40" fill="none" xmlns="http://www.w3.org/2000/svg">
<rect width="40" height="40" rx="6" fill="white"/>
<path d="M30.5403 14.5035C30.2873 13.518 29.5418 12.742 28.5953 12.4786C26.8796 12 20 12 20 12C20 12 13.1204 12 11.4047 12.4786C10.4582 12.742 9.71273 13.518 9.45971 14.5035C9 16.2896 9 20.0162 9 20.0162C9 20.0162 9 23.7428 9.45971 25.5289C9.71273 26.5143 10.4582 27.258 11.4047 27.5214C13.1204 28 20 28 20 28C20 28 26.8796 28 28.5953 27.5214C29.5418 27.258 30.2873 26.5143 30.5403 25.5289C31 23.7428 31 20.0162 31 20.0162C31 20.0162 31 16.2896 30.5403 14.5035V14.5035ZM17.75 23.3996V16.6327L23.5 20.0163L17.75 23.3996V23.3996Z" fill="#564344"/>
</svg>
